<svg width="16" height="16" viewBox="0 0 17 16" fill="none" xmlns="http://www.w3.org/2000/svg">
<path d="M11.2075 5.32625C12.49 6.2375 13.2362 7.9225 12.67 9.45125C12.1375 10.8925 10.6487 11.7938 9.14875 11.8363C9.41803 11.7411 9.65993 11.5815 9.85335 11.3714C10.0468 11.1613 10.1858 10.907 10.2584 10.6308C10.331 10.3546 10.3348 10.0648 10.2696 9.78678C10.2045 9.50873 10.0722 9.25086 9.88446 9.03567C9.6967 8.82048 9.45913 8.65451 9.19248 8.55224C8.92583 8.44997 8.6382 8.41452 8.3547 8.44898C8.0712 8.48343 7.80044 8.58674 7.56604 8.7499C7.33165 8.91306 7.14075 9.1311 7.01 9.385C6.385 10.585 7.3725 11.7813 8.45 12.26C9.67125 12.805 11.0825 12.4025 12.0625 11.56C10.375 13.875 6.95875 14.2863 5.08375 11.9763C3.80875 10.405 3.77875 8.10125 4.9375 6.4375C4.65875 7.33875 4.875 8.25 5.625 8.75C4.875 7.25 5.375 6.11375 6.3925 5.1075C6.8825 4.6225 7.50625 4.4375 8.0175 4.01375C8.58 3.54875 8.65375 2.77625 8.54625 2.0975C8.99044 2.33002 9.35713 2.68709 9.60137 3.12494C9.8456 3.5628 9.95678 4.0624 9.92125 4.5625C8.5 4.56875 7.97875 6.54625 9.23125 7.25C10.4512 7.94 11.8675 6.5675 11.2075 5.32625Z" fill="white"/>
</svg>
