<svg width="16" height="16" viewBox="0 0 16 16" fill="none" xmlns="http://www.w3.org/2000/svg">
<g clip-path="url(#clip0_2041_56)">
<path d="M12.47 3.29625C12.1313 2.99875 10.7775 3.325 10.3925 3.37125C9.1163 3.51094 7.85897 3.78839 6.6425 4.19875C5.38625 4.6425 4.36125 5.2825 3.7675 6.52375C3.40594 7.29885 3.26583 8.15887 3.36268 9.00866C3.45952 9.85844 3.78955 10.6649 4.31625 11.3387C4.59 11.0475 4.9825 10.7537 5.19875 10.4187C5.4875 9.9725 5.33 9.08125 5.35125 8.52125C5.3575 8.35625 5.41875 6.0725 5.53 6.065C5.665 6.05625 6.01375 8.2975 6.13875 9.1325C6.14343 9.15909 6.15519 9.18393 6.17281 9.20439C6.19042 9.22485 6.21323 9.24017 6.23884 9.24875C6.26444 9.25732 6.29188 9.25883 6.31826 9.25311C6.34465 9.24739 6.369 9.23466 6.38875 9.21625C6.68625 8.92208 6.985 8.63042 7.285 8.34125C7.49 8.1425 7.5925 8.065 7.6475 7.80625C7.7025 7.5475 7.66125 7.195 7.67875 6.92125C7.68875 6.75875 7.80375 4.70125 7.95125 4.69125C8.09875 4.68125 8.4075 6.295 8.5225 6.89875C8.52804 6.91901 8.53859 6.93754 8.55319 6.95264C8.56778 6.96774 8.58594 6.97892 8.606 6.98515C8.62605 6.99138 8.64735 6.99245 8.66793 6.98828C8.68851 6.9841 8.70771 6.9748 8.72375 6.96125C9.33125 6.3725 11.2238 4.5325 11.3125 4.615C11.4013 4.6975 9.83 6.81 9.32625 7.49C9.31493 7.5077 9.30825 7.52798 9.30684 7.54895C9.30542 7.56992 9.30932 7.5909 9.31817 7.60997C9.32701 7.62903 9.34052 7.64556 9.35745 7.65802C9.37438 7.67048 9.39417 7.67847 9.415 7.68125C10.0288 7.715 11.665 7.82125 11.6788 7.95625C11.6925 8.09125 9.65125 8.49125 9.50375 8.52C9.25375 8.57125 8.975 8.58875 8.725 8.65375C8.405 8.7375 8.35 8.81625 8.14875 9.09625C7.89875 9.42958 7.64875 9.76292 7.39875 10.0962C7.38192 10.1185 7.37157 10.1449 7.36883 10.1727C7.36609 10.2004 7.37108 10.2284 7.38324 10.2535C7.39539 10.2786 7.41425 10.2998 7.43772 10.3149C7.4612 10.3299 7.48837 10.3382 7.51625 10.3387C8.36125 10.3525 10.6275 10.4037 10.6413 10.5387C10.6475 10.6512 8.39125 11.0112 8.22875 11.0387C7.7125 11.1275 6.84 11.0925 6.42625 11.365C6.1075 11.575 5.81375 12.1375 5.57125 12.435C6.28428 12.8558 7.09707 13.0777 7.925 13.0777C8.75293 13.0777 9.56572 12.8558 10.2788 12.435C11.4788 11.7188 12.0288 10.63 12.3212 9.31C12.5845 8.0303 12.7019 6.72489 12.6713 5.41875C12.6713 4.94375 12.6537 4.4675 12.6062 3.995C12.5875 3.83625 12.6038 3.41375 12.47 3.29625Z" fill="white"/>
</g>
<defs>
<clipPath id="clip0_2041_56">
<rect width="16" height="16" fill="white"/>
</clipPath>
</defs>
</svg>
