<svg width="16" height="16" viewBox="0 0 16 16" fill="none" xmlns="http://www.w3.org/2000/svg">
<g clip-path="url(#clip0_2041_62)">
<path d="M13 7.375C13 5.07375 10.7613 3.20875 8 3.20875C5.23875 3.20875 3 5.07375 3 7.375C3 8.625 3.66625 9.75 4.71875 10.5175C4.57357 10.7799 4.49825 11.0751 4.5 11.375C4.5 12.2037 5.04125 12.875 5.70875 12.875C6.22875 12.875 6.67125 12.4663 6.8425 11.895C6.99125 12.4613 7.4525 12.875 8 12.875C8.5475 12.875 9.00875 12.4613 9.1575 11.895C9.32875 12.4663 9.77125 12.875 10.2913 12.875C10.9588 12.875 11.5 12.2037 11.5 11.375C11.5018 11.0751 11.4264 10.7799 11.2812 10.5175C12.3337 9.75 13 8.625 13 7.375ZM8 9.91625C6.17 9.91625 4.625 8.75 4.625 7.375C4.625 6 6.17 4.83375 8 4.83375C9.83 4.83375 11.375 6 11.375 7.375C11.375 8.75 9.83 9.91625 8 9.91625Z" fill="white"/>
</g>
<defs>
<clipPath id="clip0_2041_62">
<rect width="16" height="16" fill="white"/>
</clipPath>
</defs>
</svg>
